<svg viewBox="0 0 20 21" fill="none" xmlns="http://www.w3.org/2000/svg">
  <path d="M8.09088 9.52554C8.09088 8.66455 8.77467 7.96657 9.61816 7.96657H10.3818C11.2253 7.96657 11.9091 8.66455 11.9091 9.52554V16.5409C11.9091 17.4019 11.2253 18.0999 10.3818 18.0999H9.61816C8.77467 18.0999 8.09088 17.4019 8.09088 16.5409V9.52554Z" fill="#9393B3"></path>
  <path d="M2.74543 12.6435C2.74543 11.7825 3.42921 11.0845 4.2727 11.0845H5.03634C5.87983 11.0845 6.56361 11.7825 6.56361 12.6435V16.5409C6.56361 17.4019 5.87983 18.0999 5.03634 18.0999H4.2727C3.42921 18.0999 2.74543 17.4019 2.74543 16.5409V12.6435Z" fill="#9393B3"></path>
  <path d="M13.4363 14.982C13.4363 14.121 14.1201 13.423 14.9636 13.423H15.7272C16.5707 13.423 17.2545 14.121 17.2545 14.982V16.5409C17.2545 17.4019 16.5707 18.0999 15.7272 18.0999H14.9636C14.1201 18.0999 13.4363 17.4019 13.4363 16.5409V14.982Z" fill="#9393B3"></path>
  <path fill-rule="evenodd" clip-rule="evenodd" d="M5.71569 8.28325C4.94346 8.77204 3.99288 9.05516 2.74543 9.05516H1.59998V6.7167H2.74543C3.6309 6.7167 4.14998 6.52272 4.5084 6.29586C4.89577 6.05067 5.18518 5.71597 5.5806 5.23026C5.59948 5.20706 5.61867 5.18342 5.63821 5.15937C5.99818 4.71603 6.47116 4.13353 7.13946 3.68714C7.88353 3.19012 8.79771 2.8999 9.99998 2.8999C11.2038 2.8999 12.1191 3.19265 12.8636 3.69339C13.5317 4.14281 14.0044 4.72903 14.3642 5.17534C14.3838 5.19958 14.403 5.22341 14.4219 5.24678C14.8175 5.73613 15.1072 6.07349 15.4946 6.32046C15.8526 6.54863 16.3705 6.74355 17.2545 6.74355H18.4V9.08201H17.2545C16.0056 9.08201 15.0539 8.79647 14.2812 8.30396C13.5424 7.83304 13.042 7.21406 12.6617 6.74352L12.6549 6.73513C12.2448 6.22788 11.97 5.89287 11.603 5.64601C11.276 5.42607 10.8105 5.23836 9.99998 5.23836C9.18782 5.23836 8.7212 5.42524 8.39387 5.64388C8.02704 5.88891 7.75252 6.22122 7.34255 6.72481L7.3359 6.73299C6.95532 7.20049 6.45464 7.81553 5.71569 8.28325Z" fill="#9393B3"></path>
</svg>