<svg xmlns="http://www.w3.org/2000/svg" width="16.584" height="20.07" viewBox="0 0 16.584 20.114">
  <g transform="translate(-883.445 -500.798)">
    <g transform="translate(433.691 446.185) rotate(-45)">
      <path d="M274.822,374.227l-3.76,3.807a.248.248,0,0,0-.071.174v1.844a.247.247,0,0,0,.247.247h2.9a.247.247,0,0,0,.247-.247v-1.238a.247.247,0,0,1,.247-.247h.887a.247.247,0,0,0,.247-.247v-.831a.247.247,0,0,1,.247-.247h1.006a.247.247,0,0,0,.174-.073l.429-.429a.247.247,0,0,0-.011-.36l-2.452-2.165A.247.247,0,0,0,274.822,374.227Z" transform="translate(0 -3.628)" fill="#12162c"></path>
      <path d="M281.244,365.933a3.632,3.632,0,1,0,3.632,3.632A3.632,3.632,0,0,0,281.244,365.933Zm1.071,3.632a1.071,1.071,0,1,1,1.07-1.071A1.07,1.07,0,0,1,282.314,369.565Z" transform="translate(-2.922)" fill="#12162c"></path>
    </g>
    <path d="M342.761,459.774H327.677a.75.75,0,0,0-.75.75v4.412c0,.414.484.762,1.226.762s1.274-.348,1.274-.762v-2.662h11.584v2.662c0,.414.609.688,1.26.688s1.24-.274,1.24-.688v-4.412A.75.75,0,0,0,342.761,459.774Z" transform="translate(556.518 41.023)" fill="#12162c"></path>
  </g>
</svg>