<svg viewBox="0 0 20 21" fill="none" xmlns="http://www.w3.org/2000/svg">
  <path fill-rule="evenodd" clip-rule="evenodd" d="M17.0316 11.3932C17.0316 10.8719 16.609 10.4494 16.0878 10.4494H10.2207C9.69946 10.4494 9.27692 10.0269 9.27692 9.50562V3.04388C9.27692 2.52264 8.85437 2.1001 8.33314 2.1001H5.74377C5.22253 2.1001 4.79999 2.52264 4.79999 3.04388V18.3711C4.79999 18.8924 5.22253 19.3149 5.74377 19.3149H16.0878C16.609 19.3149 17.0316 18.8924 17.0316 18.3711V11.3932ZM15.5866 7.4563C16.1403 8.06193 15.7107 9.03691 14.8901 9.03691H11.6332C11.112 9.03691 10.6895 8.61437 10.6895 8.09313V4.53095C10.6895 3.66962 11.7486 3.25843 12.3298 3.89412L15.5866 7.4563Z" fill="#9393B3"></path>
</svg>