<svg xmlns="http://www.w3.org/2000/svg" width="22.484" height="22.096" viewBox="0 0 22.484 22.096"><g id="Groupe_86" data-name="Groupe 86" transform="translate(-776.685 -792.053)"><path id="Trac\xE9_412" data-name="Trac\xE9 412" d="M782.306,792.053h-4.817a.8.8,0,0,0-.8.8v4.817a.8.8,0,0,0,.8.8h4.817a.8.8,0,0,0,.8-.8v-4.817A.8.8,0,0,0,782.306,792.053Zm-.8,4.817h-3.21v-3.211h3.21Z" transform="translate(0)" fill="#fff"></path><path id="Trac\xE9_413" data-name="Trac\xE9 413" d="M782.306,808.8h-4.817a.8.8,0,0,0-.8.8v4.817a.8.8,0,0,0,.8.8h4.817a.8.8,0,0,0,.8-.8V809.6A.8.8,0,0,0,782.306,808.8Zm-.8,4.817h-3.21v-3.211h3.21Z" transform="translate(0 -8.911)" fill="#fff"></path><path id="Trac\xE9_414" data-name="Trac\xE9 414" d="M782.306,825.549h-4.817a.8.8,0,0,0-.8.8v4.817a.8.8,0,0,0,.8.8h4.817a.8.8,0,0,0,.8-.8v-4.817A.8.8,0,0,0,782.306,825.549Zm-.8,4.817h-3.21v-3.211h3.21Z" transform="translate(0 -17.822)" fill="#fff"></path><path id="Trac\xE9_415" data-name="Trac\xE9 415" d="M799.467,792.053H794.65a.8.8,0,0,0-.8.8v4.817a.8.8,0,0,0,.8.8h4.817a.8.8,0,0,0,.8-.8v-4.817A.8.8,0,0,0,799.467,792.053Zm-.8,4.817h-3.211v-3.211h3.211Z" transform="translate(-9.131)" fill="#fff"></path><path id="Trac\xE9_416" data-name="Trac\xE9 416" d="M799.467,808.8H794.65a.8.8,0,0,0-.8.8v4.817a.8.8,0,0,0,.8.8h4.817a.8.8,0,0,0,.8-.8V809.6A.8.8,0,0,0,799.467,808.8Zm-.8,4.817h-3.211v-3.211h3.211Z" transform="translate(-9.131 -8.911)" fill="#fff"></path><path id="Trac\xE9_417" data-name="Trac\xE9 417" d="M799.467,825.549H794.65a.8.8,0,0,0-.8.8v4.817a.8.8,0,0,0,.8.8h4.817a.8.8,0,0,0,.8-.8v-4.817A.8.8,0,0,0,799.467,825.549Zm-.8,4.817h-3.211v-3.211h3.211Z" transform="translate(-9.131 -17.822)" fill="#fff"></path><path id="Trac\xE9_418" data-name="Trac\xE9 418" d="M816.628,792.053h-4.817a.8.8,0,0,0-.8.8v4.817a.8.8,0,0,0,.8.8h4.817a.8.8,0,0,0,.8-.8v-4.817A.8.8,0,0,0,816.628,792.053Zm-.8,4.817h-3.212v-3.211h3.212Z" transform="translate(-18.262)" fill="#fff"></path><path id="Trac\xE9_419" data-name="Trac\xE9 419" d="M816.628,808.8h-4.817a.8.8,0,0,0-.8.8v4.817a.8.8,0,0,0,.8.8h4.817a.8.8,0,0,0,.8-.8V809.6A.8.8,0,0,0,816.628,808.8Zm-.8,4.817h-3.212v-3.211h3.212Z" transform="translate(-18.262 -8.911)" fill="#fff"></path><path id="Trac\xE9_420" data-name="Trac\xE9 420" d="M816.628,825.549h-4.817a.8.8,0,0,0-.8.8v4.817a.8.8,0,0,0,.8.8h4.817a.8.8,0,0,0,.8-.8v-4.817A.8.8,0,0,0,816.628,825.549Zm-.8,4.817h-3.212v-3.211h3.212Z" transform="translate(-18.262 -17.822)" fill="#fff"></path></g></svg>