<svg xmlns="http://www.w3.org/2000/svg" viewBox="0 0 19.621 19.219">
  <g transform="translate(-270.991 -365.933)">
    <path d="M277.847,374.285l-6.729,6.813a.445.445,0,0,0-.127.311v3.3a.442.442,0,0,0,.442.442h5.195a.442.442,0,0,0,.442-.442v-2.216a.442.442,0,0,1,.442-.442H279.1a.442.442,0,0,0,.442-.442v-1.487a.442.442,0,0,1,.442-.442h1.8a.441.441,0,0,0,.312-.13l.768-.768a.442.442,0,0,0-.02-.644l-4.389-3.875A.442.442,0,0,0,277.847,374.285Z" fill="#12162c"></path>
    <path d="M284.112,365.933a6.5,6.5,0,1,0,6.5,6.5A6.5,6.5,0,0,0,284.112,365.933Zm1.916,6.5a1.916,1.916,0,1,1,1.916-1.916A1.916,1.916,0,0,1,286.028,372.433Z" fill="#12162c"></path>
  </g>
</svg>