<svg xmlns="http://www.w3.org/2000/svg" viewBox="0 0 15.741 20.114">
  <g data-name="Groupe 1022" transform="translate(-719 -465)">
    <g transform="translate(719 465)">
      <path d="M55.247,48.121a.874.874,0,0,1-.875-.875V42.874H50a.875.875,0,0,1,0-1.749h5.247a.875.875,0,0,1,.875.875v5.247A.874.874,0,0,1,55.247,48.121Z" transform="translate(-40.38 -41.125)" fill="#181a3a"></path>
      <path d="M43.247,60.121H38a.874.874,0,0,1-.875-.875V54a.875.875,0,0,1,1.749,0v4.373h4.373a.875.875,0,1,1,0,1.749Z" transform="translate(-37.125 -40.007)" fill="#181a3a"></path>
    </g>
    <g transform="translate(720.306 475.125) rotate(-45)">
      <path d="M3.278.063.061,3.32A.213.213,0,0,0,0,3.469V5.047a.211.211,0,0,0,.211.211H2.7a.211.211,0,0,0,.211-.211V3.988a.211.211,0,0,1,.211-.211h.759a.211.211,0,0,0,.211-.211V2.854A.211.211,0,0,1,4.3,2.643H5.16a.211.211,0,0,0,.149-.062l.367-.367a.212.212,0,0,0-.01-.308L3.568.053A.211.211,0,0,0,3.278.063Z" transform="translate(0 3.93)" fill="#12162c"></path>
      <path d="M3.108,0A3.108,3.108,0,1,0,6.216,3.108,3.108,3.108,0,0,0,3.108,0Zm.916,3.108a.916.916,0,1,1,.916-.916A.916.916,0,0,1,4.024,3.108Z" transform="translate(3.166 0)" fill="#12162c"></path>
    </g>
  </g>
</svg>