<svg xmlns="http://www.w3.org/2000/svg" width="40.627" height="40.627" viewBox="0 0 40.627 40.627">
  <g transform="translate(-0.586 20.313) rotate(-45)">
    <path d="M26.162,28.85,14.778,17.465,3.394,28.849a1,1,0,0,1-1.414,0L.707,27.576a1,1,0,0,1,0-1.414L12.091,14.778.707,3.394a1,1,0,0,1,0-1.414L1.98.707a1,1,0,0,1,1.414,0L14.778,12.092,26.162.707a1,1,0,0,1,1.414,0L28.85,1.98a1,1,0,0,1,0,1.414L17.465,14.778,28.849,26.162a1,1,0,0,1,0,1.414L27.576,28.85a1,1,0,0,1-1.414,0Z" fill="#fff"></path>
  </g>
</svg>