<svg viewBox="0 0 20 21" fill="none" xmlns="http://www.w3.org/2000/svg">
  <path d="M17.8034 5.81839L16.8211 5.56043C16.7696 5.39837 16.7037 5.24136 16.624 5.0911L17.1405 4.21143C17.3032 3.90967 17.3738 3.60106 17.1405 3.36807C17.0205 3.27237 16.8714 3.22031 16.7178 3.22031C16.5642 3.22031 16.4152 3.27237 16.2951 3.36807L15.4007 3.884C15.2562 3.80895 15.1052 3.74701 14.9496 3.69908L14.6853 2.69578C14.5863 2.36822 14.4176 2.1001 14.0879 2.1001C13.7582 2.1001 13.5782 2.38542 13.4904 2.69578L13.221 3.7207C13.0754 3.76932 12.934 3.82967 12.7982 3.90121L11.8788 3.36555C11.5767 3.20307 11.2676 3.13171 11.0335 3.36555C10.9381 3.4855 10.8863 3.6341 10.8863 3.78723C10.8863 3.94036 10.9381 4.08897 11.0335 4.20891L11.5767 5.14085C11.5105 5.26978 11.4547 5.4038 11.4097 5.54154L10.3654 5.81671C10.0374 5.91558 9.76799 6.08393 9.76799 6.41407C9.76799 6.74421 10.0529 6.92313 10.3654 7.00996L11.4088 7.28514C11.4539 7.42329 11.5094 7.55781 11.575 7.6875L11.0317 8.61755C10.869 8.91931 10.7984 9.22985 11.0317 9.46112C11.1521 9.55609 11.301 9.60762 11.4544 9.60762C11.6078 9.60762 11.7567 9.55609 11.8771 9.46112L12.7966 8.9263C12.9324 8.99772 13.0737 9.05807 13.2192 9.10681L13.4887 10.1315C13.5868 10.4599 13.7564 10.7291 14.0861 10.7291C14.4159 10.7291 14.5958 10.4445 14.6836 10.1315L14.9479 9.13095C15.1031 9.08201 15.254 9.0201 15.3989 8.94603L16.2926 9.46196C16.5947 9.62445 16.9038 9.69494 17.1379 9.46196C17.233 9.34189 17.2847 9.19333 17.2847 9.04028C17.2847 8.88723 17.233 8.73867 17.1379 8.6186L16.6214 7.73977C16.7015 7.58929 16.7677 7.432 16.8194 7.2696L17.8017 7.01164C18.1297 6.91363 18.4 6.74524 18.4 6.41596C18.4 6.08668 18.1159 5.90694 17.8034 5.81839ZM14.1128 7.58759C13.8806 7.58759 13.6536 7.51894 13.4604 7.39008C13.2673 7.26123 13.1168 7.07794 13.028 6.86367C12.9391 6.64939 12.9158 6.4136 12.9611 6.18612C13.0064 5.95865 13.1183 5.74983 13.2825 5.58582C13.4467 5.42182 13.656 5.31014 13.8837 5.2649C14.1115 5.21965 14.3476 5.24289 14.5622 5.33164C14.7767 5.4204 14.9601 5.57076 15.0891 5.76361C15.2182 5.95645 15.287 6.18298 15.287 6.41491C15.287 6.56891 15.2567 6.72139 15.1976 6.86367C15.1386 7.00594 15.0522 7.13531 14.9431 7.24421C14.8341 7.3531 14.7046 7.43946 14.5622 7.49839C14.4197 7.55732 14.267 7.58759 14.1128 7.58759Z" fill="#9393B3"></path>
  <path d="M12.2662 12.6773L11.2693 12.4194C11.2394 12.2799 11.202 12.1422 11.1574 12.0067L11.8892 11.2836C12.1251 11.0335 12.2739 10.7541 12.1087 10.4678C12.0169 10.345 11.8863 10.2568 11.7381 10.2172C11.5899 10.1775 11.4326 10.1889 11.2917 10.2495L10.2931 10.5219C10.1978 10.4164 10.0969 10.3161 9.99094 10.2211L10.263 9.22289C10.3422 8.89017 10.3293 8.57205 10.0443 8.4087C9.9037 8.34746 9.74645 8.33562 9.59823 8.37512C9.45001 8.41462 9.31958 8.50329 9.22821 8.62636L8.50421 9.35701C8.36856 9.31291 8.23059 9.27623 8.09096 9.24702L7.82756 8.25065C7.72856 7.9231 7.55983 7.65476 7.23098 7.65476C6.90212 7.65476 6.72131 7.93943 6.6335 8.25065L6.37094 9.24702C6.23136 9.27643 6.09345 9.3131 5.95774 9.35701L5.23374 8.62636C4.98408 8.39166 4.70344 8.24278 4.41763 8.4087C4.29429 8.49967 4.20544 8.62964 4.16558 8.77749C4.12571 8.92534 4.13718 9.08237 4.1981 9.22289L4.47101 10.2203C4.36475 10.3149 4.26386 10.4152 4.16884 10.5211L3.17019 10.2486C2.83617 10.1704 2.51937 10.1824 2.35408 10.4669C2.29294 10.6076 2.28128 10.7648 2.32098 10.913C2.36068 11.0611 2.44944 11.1914 2.57277 11.2828L3.30449 12.0059C3.2603 12.1411 3.22326 12.2786 3.19347 12.4177L2.1974 12.6799C1.86854 12.7787 1.59998 12.9473 1.59998 13.2774C1.59998 13.6076 1.8849 13.7854 2.1974 13.8731L3.19347 14.1363C3.2233 14.2754 3.26034 14.4129 3.30449 14.5481L2.57277 15.2712C2.33775 15.5205 2.18966 15.8008 2.35408 16.0862C2.44535 16.2094 2.57578 16.298 2.72404 16.3375C2.8723 16.377 3.0296 16.3651 3.17019 16.3037L4.16884 16.0329C4.26421 16.1384 4.36509 16.2388 4.47101 16.3337L4.1981 17.332C4.1189 17.6655 4.13093 17.9828 4.41674 18.147C4.55745 18.2081 4.71476 18.2198 4.86299 18.1802C5.01122 18.1405 5.1416 18.0517 5.23285 17.9285L5.95684 17.1978C6.09254 17.242 6.2305 17.279 6.3701 17.3087L6.63266 18.3034C6.7308 18.6318 6.90037 18.9001 7.23008 18.9001C7.5598 18.9001 7.73972 18.6146 7.82666 18.3034L8.09012 17.3087C8.22976 17.2792 8.36768 17.2422 8.50332 17.1978L9.22732 17.9285C9.47697 18.1649 9.75762 18.3129 10.0434 18.147C10.1664 18.0556 10.255 17.9253 10.2946 17.7774C10.3343 17.6295 10.3229 17.4726 10.2621 17.332L9.99004 16.3337C10.0959 16.2396 10.1968 16.1401 10.2922 16.0354L11.2909 16.3054C11.6249 16.3853 11.9417 16.3734 12.1078 16.0879C12.169 15.9473 12.1805 15.7901 12.1407 15.6421C12.1008 15.4941 12.0118 15.3639 11.8883 15.2729L11.1566 14.5498C11.2011 14.4146 11.2385 14.2771 11.2685 14.138L12.2653 13.875C12.5933 13.777 12.8619 13.6084 12.8619 13.2791C12.8619 12.9498 12.5787 12.7668 12.2662 12.6773ZM7.23271 14.978C6.89545 14.9778 6.56579 14.8777 6.28545 14.6904C6.00512 14.5032 5.78666 14.2372 5.65771 13.926C5.52877 13.6148 5.49513 13.2723 5.56103 12.942C5.62693 12.6117 5.7894 12.3084 6.02794 12.0703C6.26647 11.8322 6.57037 11.67 6.90116 11.6044C7.23195 11.5387 7.57478 11.5726 7.88635 11.7015C8.19792 11.8305 8.46425 12.0486 8.6516 12.3287C8.83895 12.6088 8.93896 12.9381 8.93896 13.2749C8.93896 13.4986 8.89478 13.7202 8.80902 13.9268C8.72326 14.1335 8.59756 14.3213 8.43911 14.4795C8.28066 14.6377 8.09257 14.763 7.88557 14.8485C7.67856 14.934 7.45674 14.9781 7.23271 14.978Z" fill="#9393B3"></path>
</svg>