<svg viewBox="0 0 20 21" fill="none" xmlns="http://www.w3.org/2000/svg">
  <path fill-rule="evenodd" clip-rule="evenodd" d="M10.1198 2.10035C11.1177 2.11683 11.9133 2.93585 11.8967 3.92967L11.8098 9.15263L16.8368 7.53534C17.7866 7.22979 18.8052 7.74885 19.112 8.69468C19.4188 9.64052 18.8976 10.655 17.9479 10.9605L12.86 12.5974L15.8965 16.8587C16.4741 17.6693 16.2825 18.7927 15.4685 19.3679C14.6546 19.9432 13.5265 19.7524 12.9489 18.9418L9.92673 14.7005L6.74074 18.972C6.1456 19.7699 5.01364 19.9363 4.21244 19.3436C3.41123 18.7509 3.24418 17.6236 3.83932 16.8257L7.01065 12.5738L2.04644 10.9587C1.09772 10.65 0.579886 9.63387 0.889818 8.68904C1.19975 7.74422 2.22009 7.22851 3.1688 7.53717L8.19467 9.17231L8.28295 3.87C8.2995 2.87617 9.12189 2.08387 10.1198 2.10035Z" fill="#9393B3"></path>
</svg>