<svg xmlns="http://www.w3.org/2000/svg" xmlns:xlink="http://www.w3.org/1999/xlink" viewBox="0 0 500 500" preserveAspectRatio="xMidYMid slice" style="width: 100%; height: 100%; transform: translate3d(0px, 0px, 0px); content-visibility: visible;">
  <defs>
    <clipPath>
      <rect width="500" height="500" x="0" y="0"></rect>
    </clipPath>
  </defs>
  <g clip-path="url(#__lottie_element_18)">
    <g transform="matrix(1.218999981880188,0,0,1.218999981880188,81.4729995727539,127.7959976196289)" opacity="1" style="display: block;">
      <g opacity="1" transform="matrix(1,0,0,1,-61.5,-90)">
        <path fill="rgb(255,255,255)" fill-opacity="1" d=" M273.3450012207031,90 C312.1910095214844,114.3010025024414 338,157.27200317382812 338,206.2270050048828 C338,282.0409851074219 276.1029968261719,343.5 199.75,343.5 C123.39700317382812,343.5 61.5,282.0409851074219 61.5,206.2270050048828 C61.5,158.88099670410156 85.63999938964844,117.13300323486328 122.36599731445312,92.45700073242188"></path>
        <path stroke-linecap="round" stroke-linejoin="miter" fill-opacity="0" stroke-miterlimit="10" stroke="rgb(0,0,0)" stroke-opacity="1" stroke-width="37" d=" M273.3450012207031,90 C312.1910095214844,114.3010025024414 338,157.27200317382812 338,206.2270050048828 C338,282.0409851074219 276.1029968261719,343.5 199.75,343.5 C123.39700317382812,343.5 61.5,282.0409851074219 61.5,206.2270050048828 C61.5,158.88099670410156 85.63999938964844,117.13300323486328 122.36599731445312,92.45700073242188"></path>
      </g>
    </g>
    <g transform="matrix(1.218999981880188,0,0,1.4869999885559082,225.31500244140625,43.98499298095703)" opacity="1" style="display: block;">
      <g opacity="1" transform="matrix(1,0,0,1,-179.5,-37)">
        <path fill="rgb(0,0,0)" fill-opacity="1" d=" M179.5,133.53199768066406 C179.5,133.53199768066406 179.5,52.520999908447266 179.5,52.520999908447266 C179.5,43.94900131225586 186.44900512695312,37 195.02099609375,37 C195.02099609375,37 203.47799682617188,37 203.47799682617188,37 C212.05099487304688,37 219,43.94900131225586 219,52.520999908447266 C219,52.520999908447266 219,133.53199768066406 219,133.53199768066406 C219,142.10400390625 212.05099487304688,149.05299377441406 203.47900390625,149.05299377441406 C203.47900390625,149.05299377441406 195.02200317382812,149.05299377441406 195.02200317382812,149.05299377441406 C186.44900512695312,149.0540008544922 179.5,142.10499572753906 179.5,133.53199768066406z"></path>
        <path stroke-linecap="square" stroke-linejoin="miter" fill-opacity="0" stroke-miterlimit="1" stroke="rgb(0,0,0)" stroke-opacity="0" stroke-width="0" d=" M179.5,133.53199768066406 C179.5,133.53199768066406 179.5,52.520999908447266 179.5,52.520999908447266 C179.5,43.94900131225586 186.44900512695312,37 195.02099609375,37 C195.02099609375,37 203.47799682617188,37 203.47799682617188,37 C212.05099487304688,37 219,43.94900131225586 219,52.520999908447266 C219,52.520999908447266 219,133.53199768066406 219,133.53199768066406 C219,142.10400390625 212.05099487304688,149.05299377441406 203.47900390625,149.05299377441406 C203.47900390625,149.05299377441406 195.02200317382812,149.05299377441406 195.02200317382812,149.05299377441406 C186.44900512695312,149.0540008544922 179.5,142.10499572753906 179.5,133.53199768066406z"></path>
      </g>
    </g>
  </g>
</svg>